# xmcd
#
# Track frame offsets:
#	183
#	27088
#	50425
#	78115
#	94945
#	105193
#
# Disc length: 2814 seconds
#
# Revision: 6
# Processed by: cddbd v1.5.2PL0 Copyright (c) Steve Scherf et al.
# Submitted via: audiograbber 1.83.01
#
DISCID=360afc06
DTITLE=Pink floyd - Meddle
DYEAR=1971
DGENRE=Progressive Rock
TTITLE0=One of these days
TTITLE1=A pillow of winds
TTITLE2=Fearless
TTITLE3=San Tropez
TTITLE4=Seamus
TTITLE5=Echoes
EXTD=Produced by: Pink Floyd [Emi]
EXTT0=Roger Waters
EXTT1=Gilmour - Waters
EXTT2=Gilmour - Waters - Rodger - Hammestein
EXTT3=Roger Waters
EXTT4=Mason - Gilmour - Waters - Wright
EXTT5=Mason - Gilmour - Waters - Wright
PLAYORDER=
